{
	"asset":{
		"generator":"Khronos glTF Blender I/O v4.0.44",
		"version":"2.0"
	},
	"extensionsUsed":[
		"KHR_materials_specular",
		"KHR_materials_ior",
		"KHR_lights_punctual"
	],
	"extensionsRequired":[
		"KHR_lights_punctual"
	],
	"extensions":{
		"KHR_lights_punctual":{
			"lights":[
				{
					"color":[
						1,
						1,
						1
					],
					"intensity":543524.9584793943,
					"type":"point",
					"name":"\u70b9\u5149"
				},
				{
					"color":[
						1,
						1,
						1
					],
					"intensity":86962.2609054116,
					"type":"point",
					"name":"\u70b9\u5149.001"
				},
				{
					"color":[
						0.9473763108253479,
						0.9899536371231079,
						1
					],
					"intensity":5435.141306588225,
					"type":"point",
					"name":"\u70b9\u5149.002"
				}
			]
		}
	},
	"scene":0,
	"scenes":[
		{
			"name":"Scene",
			"nodes":[
				0,
				2,
				3,
				4,
				5,
				6,
				7,
				8,
				9,
				10
			]
		}
	],
	"nodes":[
		{
			"camera":0,
			"name":"Camera",
			"translation":[
				-0.0006503185722976923,
				0.01662709005177021,
				0.19763299822807312
			]
		},
		{
			"mesh":0,
			"name":"icing",
			"translation":[
				0.0010354011319577694,
				0.012731343507766724,
				4.4904882088303566e-05
			]
		},
		{
			"children":[
				1
			],
			"mesh":1,
			"name":"donat",
			"rotation":[
				0.516733705997467,
				-0.4549952745437622,
				0.1330586075782776,
				0.7129243016242981
			],
			"translation":[
				0.0003015710972249508,
				0.01852182112634182,
				0.0007210588664747775
			]
		},
		{
			"extensions":{
				"KHR_lights_punctual":{
					"light":0
				}
			},
			"name":"\u70b9\u5149",
			"rotation":[
				-0.7071068286895752,
				0,
				0,
				0.7071068286895752
			],
			"translation":[
				-9.480568885803223,
				11.231867790222168,
				4.390545845031738
			]
		},
		{
			"extensions":{
				"KHR_lights_punctual":{
					"light":1
				}
			},
			"name":"\u70b9\u5149.001",
			"rotation":[
				-0.7071068286895752,
				0,
				0,
				0.7071068286895752
			],
			"translation":[
				6.711805820465088,
				-7.148014545440674,
				0.3540957570075989
			]
		},
		{
			"extensions":{
				"KHR_lights_punctual":{
					"light":2
				}
			},
			"name":"\u70b9\u5149.002",
			"rotation":[
				-0.7071068286895752,
				0,
				0,
				0.7071068286895752
			],
			"translation":[
				1.8167425394058228,
				0.46578097343444824,
				-3.7852792739868164
			]
		},
		{
			"mesh":2,
			"name":"sprinkle",
			"translation":[
				-0.08631592243909836,
				0.022713428363204002,
				0.0012206502724438906
			]
		},
		{
			"mesh":3,
			"name":"sprinkle.001",
			"translation":[
				-0.07876618206501007,
				0.018734505400061607,
				-0.002876352285966277
			]
		},
		{
			"mesh":4,
			"name":"sprinkle.002",
			"translation":[
				-0.0769101157784462,
				0.02664952725172043,
				0.0036916208919137716
			]
		},
		{
			"mesh":5,
			"name":"sprinkle.003",
			"translation":[
				-0.08700357377529144,
				0.028343552723526955,
				0.002360397484153509
			]
		},
		{
			"mesh":6,
			"name":"sprinkle.004",
			"translation":[
				-0.09754397720098495,
				0.024344954639673233,
				0.0007511759758926928
			]
		}
	],
	"cameras":[
		{
			"name":"Camera",
			"perspective":{
				"aspectRatio":0.75,
				"yfov":0.8457078337669373,
				"zfar":100,
				"znear":0.009999999776482582
			},
			"type":"perspective"
		}
	],
	"animations":[
		{
			"channels":[
				{
					"sampler":0,
					"target":{
						"node":2,
						"path":"rotation"
					}
				}
			],
			"name":"donatAction.001",
			"samplers":[
				{
					"input":26,
					"interpolation":"LINEAR",
					"output":27
				}
			]
		}
	],
	"materials":[
		{
			"doubleSided":true,
			"extensions":{
				"KHR_materials_specular":{
					"specularFactor":0.35849058628082275
				},
				"KHR_materials_ior":{
					"ior":1.4500000476837158
				}
			},
			"name":"\u6750\u8d28",
			"pbrMetallicRoughness":{
				"baseColorFactor":[
					0.8000000715255737,
					0.29070186614990234,
					0.6362597346305847,
					1
				],
				"metallicFactor":0,
				"roughnessFactor":0.10691824555397034
			}
		},
		{
			"doubleSided":true,
			"name":"Material.005",
			"pbrMetallicRoughness":{
				"baseColorFactor":[
					0.5338496565818787,
					0.44313737750053406,
					0.8000000715255737,
					1
				],
				"metallicFactor":0,
				"roughnessFactor":0.11635220795869827
			}
		},
		{
			"doubleSided":true,
			"name":"\u6750\u8d28.002",
			"pbrMetallicRoughness":{
				"metallicFactor":0,
				"roughnessFactor":0.39308175444602966
			}
		}
	],
	"meshes":[
		{
			"name":"\u73af\u4f53.010",
			"primitives":[
				{
					"attributes":{
						"POSITION":0,
						"NORMAL":1,
						"TEXCOORD_0":2
					},
					"indices":3,
					"material":0
				}
			]
		},
		{
			"name":"\u73af\u4f53.009",
			"primitives":[
				{
					"attributes":{
						"POSITION":4,
						"NORMAL":5,
						"TEXCOORD_0":6
					},
					"indices":7,
					"material":1
				}
			]
		},
		{
			"name":"Cylinder.001",
			"primitives":[
				{
					"attributes":{
						"POSITION":8,
						"NORMAL":9,
						"TEXCOORD_0":10
					},
					"indices":11,
					"material":2
				}
			]
		},
		{
			"name":"Cylinder.002",
			"primitives":[
				{
					"attributes":{
						"POSITION":12,
						"NORMAL":13,
						"TEXCOORD_0":14
					},
					"indices":15,
					"material":2
				}
			]
		},
		{
			"name":"Cylinder.003",
			"primitives":[
				{
					"attributes":{
						"POSITION":16,
						"NORMAL":17,
						"TEXCOORD_0":18
					},
					"indices":11,
					"material":2
				}
			]
		},
		{
			"name":"Cylinder.004",
			"primitives":[
				{
					"attributes":{
						"POSITION":19,
						"NORMAL":20,
						"TEXCOORD_0":21
					},
					"indices":22,
					"material":2
				}
			]
		},
		{
			"name":"Cylinder.005",
			"primitives":[
				{
					"attributes":{
						"POSITION":23,
						"NORMAL":24,
						"TEXCOORD_0":25
					},
					"indices":22,
					"material":2
				}
			]
		}
	],
	"accessors":[
		{
			"bufferView":0,
			"componentType":5126,
			"count":10704,
			"max":[
				0.049468934535980225,
				0.01232257392257452,
				0.050848472863435745
			],
			"min":[
				-0.05175907537341118,
				-0.026334663853049278,
				-0.0527259036898613
			],
			"type":"VEC3"
		},
		{
			"bufferView":1,
			"componentType":5126,
			"count":10704,
			"type":"VEC3"
		},
		{
			"bufferView":2,
			"componentType":5126,
			"count":10704,
			"type":"VEC2"
		},
		{
			"bufferView":3,
			"componentType":5123,
			"count":63648,
			"type":"SCALAR"
		},
		{
			"bufferView":4,
			"componentType":5126,
			"count":779,
			"max":[
				0.048362940549850464,
				0.020469194278120995,
				0.049037251621484756
			],
			"min":[
				-0.04856512323021889,
				-0.022457385435700417,
				-0.0478377565741539
			],
			"type":"VEC3"
		},
		{
			"bufferView":5,
			"componentType":5126,
			"count":779,
			"type":"VEC3"
		},
		{
			"bufferView":6,
			"componentType":5126,
			"count":779,
			"type":"VEC2"
		},
		{
			"bufferView":7,
			"componentType":5123,
			"count":4320,
			"type":"SCALAR"
		},
		{
			"bufferView":8,
			"componentType":5126,
			"count":153,
			"max":[
				0.004460982978343964,
				0.0009800425032153726,
				0.0009686804260127246
			],
			"min":[
				-0.004495760425925255,
				-0.001003388548269868,
				-0.0009668233687989414
			],
			"type":"VEC3"
		},
		{
			"bufferView":9,
			"componentType":5126,
			"count":153,
			"type":"VEC3"
		},
		{
			"bufferView":10,
			"componentType":5126,
			"count":153,
			"type":"VEC2"
		},
		{
			"bufferView":11,
			"componentType":5123,
			"count":672,
			"type":"SCALAR"
		},
		{
			"bufferView":12,
			"componentType":5126,
			"count":187,
			"max":[
				0.005403066519647837,
				0.0010263677686452866,
				0.0010534634348005056
			],
			"min":[
				-0.005437064915895462,
				-0.0010501391952857375,
				-0.001065148040652275
			],
			"type":"VEC3"
		},
		{
			"bufferView":13,
			"componentType":5126,
			"count":187,
			"type":"VEC3"
		},
		{
			"bufferView":14,
			"componentType":5126,
			"count":187,
			"type":"VEC2"
		},
		{
			"bufferView":15,
			"componentType":5123,
			"count":864,
			"type":"SCALAR"
		},
		{
			"bufferView":16,
			"componentType":5126,
			"count":153,
			"max":[
				0.0024025337770581245,
				0.0010316226398572326,
				0.0010567441349849105
			],
			"min":[
				-0.002437309827655554,
				-0.0010323793394491076,
				-0.0010566838318482041
			],
			"type":"VEC3"
		},
		{
			"bufferView":17,
			"componentType":5126,
			"count":153,
			"type":"VEC3"
		},
		{
			"bufferView":18,
			"componentType":5126,
			"count":153,
			"type":"VEC2"
		},
		{
			"bufferView":19,
			"componentType":5126,
			"count":221,
			"max":[
				0.00462295301258564,
				0.0016927936812862754,
				0.000977015937678516
			],
			"min":[
				-0.003997048828750849,
				-0.0009294273913837969,
				-0.0009662699303589761
			],
			"type":"VEC3"
		},
		{
			"bufferView":20,
			"componentType":5126,
			"count":221,
			"type":"VEC3"
		},
		{
			"bufferView":21,
			"componentType":5126,
			"count":221,
			"type":"VEC2"
		},
		{
			"bufferView":22,
			"componentType":5123,
			"count":1056,
			"type":"SCALAR"
		},
		{
			"bufferView":23,
			"componentType":5126,
			"count":221,
			"max":[
				0.004057675134390593,
				0.001500834128819406,
				0.0009108726517297328
			],
			"min":[
				-0.004488765262067318,
				-0.0008611818193458021,
				-0.0010655359365046024
			],
			"type":"VEC3"
		},
		{
			"bufferView":24,
			"componentType":5126,
			"count":221,
			"type":"VEC3"
		},
		{
			"bufferView":25,
			"componentType":5126,
			"count":221,
			"type":"VEC2"
		},
		{
			"bufferView":26,
			"componentType":5126,
			"count":301,
			"max":[
				10.033333333333333
			],
			"min":[
				0.03333333333333333
			],
			"type":"SCALAR"
		},
		{
			"bufferView":27,
			"componentType":5126,
			"count":301,
			"type":"VEC4"
		}
	],
	"bufferViews":[
		{
			"buffer":0,
			"byteLength":128448,
			"byteOffset":0,
			"target":34962
		},
		{
			"buffer":0,
			"byteLength":128448,
			"byteOffset":128448,
			"target":34962
		},
		{
			"buffer":0,
			"byteLength":85632,
			"byteOffset":256896,
			"target":34962
		},
		{
			"buffer":0,
			"byteLength":127296,
			"byteOffset":342528,
			"target":34963
		},
		{
			"buffer":0,
			"byteLength":9348,
			"byteOffset":469824,
			"target":34962
		},
		{
			"buffer":0,
			"byteLength":9348,
			"byteOffset":479172,
			"target":34962
		},
		{
			"buffer":0,
			"byteLength":6232,
			"byteOffset":488520,
			"target":34962
		},
		{
			"buffer":0,
			"byteLength":8640,
			"byteOffset":494752,
			"target":34963
		},
		{
			"buffer":0,
			"byteLength":1836,
			"byteOffset":503392,
			"target":34962
		},
		{
			"buffer":0,
			"byteLength":1836,
			"byteOffset":505228,
			"target":34962
		},
		{
			"buffer":0,
			"byteLength":1224,
			"byteOffset":507064,
			"target":34962
		},
		{
			"buffer":0,
			"byteLength":1344,
			"byteOffset":508288,
			"target":34963
		},
		{
			"buffer":0,
			"byteLength":2244,
			"byteOffset":509632,
			"target":34962
		},
		{
			"buffer":0,
			"byteLength":2244,
			"byteOffset":511876,
			"target":34962
		},
		{
			"buffer":0,
			"byteLength":1496,
			"byteOffset":514120,
			"target":34962
		},
		{
			"buffer":0,
			"byteLength":1728,
			"byteOffset":515616,
			"target":34963
		},
		{
			"buffer":0,
			"byteLength":1836,
			"byteOffset":517344,
			"target":34962
		},
		{
			"buffer":0,
			"byteLength":1836,
			"byteOffset":519180,
			"target":34962
		},
		{
			"buffer":0,
			"byteLength":1224,
			"byteOffset":521016,
			"target":34962
		},
		{
			"buffer":0,
			"byteLength":2652,
			"byteOffset":522240,
			"target":34962
		},
		{
			"buffer":0,
			"byteLength":2652,
			"byteOffset":524892,
			"target":34962
		},
		{
			"buffer":0,
			"byteLength":1768,
			"byteOffset":527544,
			"target":34962
		},
		{
			"buffer":0,
			"byteLength":2112,
			"byteOffset":529312,
			"target":34963
		},
		{
			"buffer":0,
			"byteLength":2652,
			"byteOffset":531424,
			"target":34962
		},
		{
			"buffer":0,
			"byteLength":2652,
			"byteOffset":534076,
			"target":34962
		},
		{
			"buffer":0,
			"byteLength":1768,
			"byteOffset":536728,
			"target":34962
		},
		{
			"buffer":0,
			"byteLength":1204,
			"byteOffset":538496
		},
		{
			"buffer":0,
			"byteLength":4816,
			"byteOffset":539700
		}
	],
	"buffers":[
		{
			"byteLength":544516,
			"uri":"donat.bin"
		}
	]
}
