{
	"asset":{
		"generator":"Khronos glTF Blender I/O v4.0.44",
		"version":"2.0"
	},
	"extensionsUsed":[
		"KHR_materials_specular",
		"KHR_materials_ior",
		"KHR_lights_punctual"
	],
	"extensionsRequired":[
		"KHR_lights_punctual"
	],
	"extensions":{
		"KHR_lights_punctual":{
			"lights":[
				{
					"color":[
						0.9473763108253479,
						0.9899536371231079,
						1
					],
					"intensity":543514.1306588226,
					"type":"point",
					"name":"\u70b9\u5149"
				},
				{
					"color":[
						1,
						1,
						1
					],
					"intensity":86962.2609054116,
					"type":"point",
					"name":"\u70b9\u5149.001"
				},
				{
					"color":[
						0.9473763108253479,
						0.9899536371231079,
						1
					],
					"intensity":5435.141306588225,
					"type":"point",
					"name":"\u70b9\u5149.002"
				}
			]
		}
	},
	"scene":0,
	"scenes":[
		{
			"name":"Scene",
			"nodes":[
				0,
				6,
				7,
				8,
				9
			]
		}
	],
	"nodes":[
		{
			"mesh":0,
			"name":"Plane",
			"translation":[
				1.5675235986709595,
				0.4016668200492859,
				-1.2126240730285645
			]
		},
		{
			"mesh":1,
			"name":"Sphere",
			"translation":[
				-0.04601297527551651,
				-0.002944834530353546,
				0.018146658316254616
			]
		},
		{
			"mesh":2,
			"name":"Sphere.001",
			"translation":[
				0.009615769609808922,
				0.01072270330041647,
				-0.03498416021466255
			]
		},
		{
			"mesh":3,
			"name":"Sphere.002",
			"translation":[
				0.030714578926563263,
				0.013498174957931042,
				-0.009131278842687607
			]
		},
		{
			"mesh":4,
			"name":"Sphere.003",
			"translation":[
				-0.009559552185237408,
				0.01111571118235588,
				0.017818212509155273
			]
		},
		{
			"children":[
				1,
				2,
				3,
				4
			],
			"mesh":5,
			"name":"icing",
			"translation":[
				0.0010354011319577694,
				0.012731343507766724,
				4.4904882088303566e-05
			]
		},
		{
			"children":[
				5
			],
			"mesh":6,
			"name":"donat",
			"rotation":[
				0.516733705997467,
				-0.4549952745437622,
				0.1330586075782776,
				0.7129243016242981
			],
			"translation":[
				0.0003015710972249508,
				0.01852182112634182,
				0.0007210588664747775
			]
		},
		{
			"extensions":{
				"KHR_lights_punctual":{
					"light":0
				}
			},
			"name":"\u70b9\u5149",
			"rotation":[
				-0.7071068286895752,
				0,
				0,
				0.7071068286895752
			],
			"translation":[
				-9.480568885803223,
				11.231867790222168,
				4.390545845031738
			]
		},
		{
			"extensions":{
				"KHR_lights_punctual":{
					"light":1
				}
			},
			"name":"\u70b9\u5149.001",
			"rotation":[
				-0.7071068286895752,
				0,
				0,
				0.7071068286895752
			],
			"translation":[
				6.711805820465088,
				-7.148014545440674,
				0.3540957570075989
			]
		},
		{
			"extensions":{
				"KHR_lights_punctual":{
					"light":2
				}
			},
			"name":"\u70b9\u5149.002",
			"rotation":[
				-0.7071068286895752,
				0,
				0,
				0.7071068286895752
			],
			"translation":[
				1.8167425394058228,
				0.46578097343444824,
				-3.7852792739868164
			]
		}
	],
	"animations":[
		{
			"channels":[
				{
					"sampler":0,
					"target":{
						"node":6,
						"path":"rotation"
					}
				}
			],
			"name":"donatAction.001",
			"samplers":[
				{
					"input":25,
					"interpolation":"LINEAR",
					"output":26
				}
			]
		}
	],
	"materials":[
		{
			"doubleSided":true,
			"name":"Material.005",
			"pbrMetallicRoughness":{
				"baseColorFactor":[
					0.5338496565818787,
					0.44313737750053406,
					0.8000000715255737,
					1
				],
				"metallicFactor":0,
				"roughnessFactor":0.11635220795869827
			}
		},
		{
			"doubleSided":true,
			"extensions":{
				"KHR_materials_specular":{
					"specularFactor":0.35849058628082275
				},
				"KHR_materials_ior":{
					"ior":1.4500000476837158
				}
			},
			"name":"\u6750\u8d28",
			"pbrMetallicRoughness":{
				"baseColorFactor":[
					0.8000000715255737,
					0.29070186614990234,
					0.6362597346305847,
					1
				],
				"metallicFactor":0,
				"roughnessFactor":0.10691824555397034
			}
		},
		{
			"doubleSided":true,
			"extensions":{
				"KHR_materials_specular":{
					"specularColorFactor":[
						1.1329305171966553,
						1.1329305171966553,
						1.1329305171966553
					]
				},
				"KHR_materials_ior":{
					"ior":1.4500000476837158
				}
			},
			"name":"\u6750\u8d28.001",
			"pbrMetallicRoughness":{
				"baseColorTexture":{
					"index":0
				},
				"metallicFactor":0,
				"roughnessFactor":0.25540098547935486
			}
		}
	],
	"meshes":[
		{
			"name":"Plane",
			"primitives":[
				{
					"attributes":{
						"POSITION":0,
						"NORMAL":1,
						"TEXCOORD_0":2
					},
					"indices":3
				}
			]
		},
		{
			"name":"Sphere",
			"primitives":[
				{
					"attributes":{
						"POSITION":4,
						"NORMAL":5,
						"TEXCOORD_0":6
					},
					"indices":7,
					"material":0
				}
			]
		},
		{
			"name":"Sphere.001",
			"primitives":[
				{
					"attributes":{
						"POSITION":8,
						"NORMAL":9,
						"TEXCOORD_0":10
					},
					"indices":7,
					"material":0
				}
			]
		},
		{
			"name":"Sphere.002",
			"primitives":[
				{
					"attributes":{
						"POSITION":11,
						"NORMAL":12,
						"TEXCOORD_0":13
					},
					"indices":7,
					"material":0
				}
			]
		},
		{
			"name":"Sphere.003",
			"primitives":[
				{
					"attributes":{
						"POSITION":14,
						"NORMAL":15,
						"TEXCOORD_0":16
					},
					"indices":7,
					"material":0
				}
			]
		},
		{
			"name":"\u73af\u4f53.010",
			"primitives":[
				{
					"attributes":{
						"POSITION":17,
						"NORMAL":18,
						"TEXCOORD_0":19
					},
					"indices":20,
					"material":1
				}
			]
		},
		{
			"name":"\u73af\u4f53.009",
			"primitives":[
				{
					"attributes":{
						"POSITION":21,
						"NORMAL":22,
						"TEXCOORD_0":23
					},
					"indices":24,
					"material":2
				}
			]
		}
	],
	"textures":[
		{
			"sampler":0,
			"source":0
		}
	],
	"images":[
		{
			"mimeType":"image/png",
			"name":"donat base.001",
			"uri":"donat%20base_001.png"
		}
	],
	"accessors":[
		{
			"bufferView":0,
			"componentType":5126,
			"count":4,
			"max":[
				1,
				0,
				1
			],
			"min":[
				-1,
				0,
				-1
			],
			"type":"VEC3"
		},
		{
			"bufferView":1,
			"componentType":5126,
			"count":4,
			"type":"VEC3"
		},
		{
			"bufferView":2,
			"componentType":5126,
			"count":4,
			"type":"VEC2"
		},
		{
			"bufferView":3,
			"componentType":5123,
			"count":6,
			"type":"SCALAR"
		},
		{
			"bufferView":4,
			"componentType":5126,
			"count":287,
			"max":[
				0.002816617488861084,
				0.002816617488861084,
				0.002816617488861084
			],
			"min":[
				-0.00281660258769989,
				-0.002816610038280487,
				-0.002816607244312763
			],
			"type":"VEC3"
		},
		{
			"bufferView":5,
			"componentType":5126,
			"count":287,
			"type":"VEC3"
		},
		{
			"bufferView":6,
			"componentType":5126,
			"count":287,
			"type":"VEC2"
		},
		{
			"bufferView":7,
			"componentType":5123,
			"count":1440,
			"type":"SCALAR"
		},
		{
			"bufferView":8,
			"componentType":5126,
			"count":287,
			"max":[
				0.002816617488861084,
				0.002816617488861084,
				0.002816617488861084
			],
			"min":[
				-0.00281660258769989,
				-0.002816610038280487,
				-0.002816607244312763
			],
			"type":"VEC3"
		},
		{
			"bufferView":9,
			"componentType":5126,
			"count":287,
			"type":"VEC3"
		},
		{
			"bufferView":10,
			"componentType":5126,
			"count":287,
			"type":"VEC2"
		},
		{
			"bufferView":11,
			"componentType":5126,
			"count":287,
			"max":[
				0.002816617488861084,
				0.002816617488861084,
				0.002816617488861084
			],
			"min":[
				-0.00281660258769989,
				-0.002816610038280487,
				-0.002816607244312763
			],
			"type":"VEC3"
		},
		{
			"bufferView":12,
			"componentType":5126,
			"count":287,
			"type":"VEC3"
		},
		{
			"bufferView":13,
			"componentType":5126,
			"count":287,
			"type":"VEC2"
		},
		{
			"bufferView":14,
			"componentType":5126,
			"count":287,
			"max":[
				0.002816617488861084,
				0.002816617488861084,
				0.002816617488861084
			],
			"min":[
				-0.00281660258769989,
				-0.002816610038280487,
				-0.002816607244312763
			],
			"type":"VEC3"
		},
		{
			"bufferView":15,
			"componentType":5126,
			"count":287,
			"type":"VEC3"
		},
		{
			"bufferView":16,
			"componentType":5126,
			"count":287,
			"type":"VEC2"
		},
		{
			"bufferView":17,
			"componentType":5126,
			"count":10704,
			"max":[
				0.049468934535980225,
				0.01232257392257452,
				0.050848472863435745
			],
			"min":[
				-0.05175907537341118,
				-0.026334663853049278,
				-0.0527259036898613
			],
			"type":"VEC3"
		},
		{
			"bufferView":18,
			"componentType":5126,
			"count":10704,
			"type":"VEC3"
		},
		{
			"bufferView":19,
			"componentType":5126,
			"count":10704,
			"type":"VEC2"
		},
		{
			"bufferView":20,
			"componentType":5123,
			"count":63648,
			"type":"SCALAR"
		},
		{
			"bufferView":21,
			"componentType":5126,
			"count":779,
			"max":[
				0.048362940549850464,
				0.020469194278120995,
				0.049037251621484756
			],
			"min":[
				-0.04856512323021889,
				-0.022457385435700417,
				-0.0478377565741539
			],
			"type":"VEC3"
		},
		{
			"bufferView":22,
			"componentType":5126,
			"count":779,
			"type":"VEC3"
		},
		{
			"bufferView":23,
			"componentType":5126,
			"count":779,
			"type":"VEC2"
		},
		{
			"bufferView":24,
			"componentType":5123,
			"count":4320,
			"type":"SCALAR"
		},
		{
			"bufferView":25,
			"componentType":5126,
			"count":301,
			"max":[
				10.033333333333333
			],
			"min":[
				0.03333333333333333
			],
			"type":"SCALAR"
		},
		{
			"bufferView":26,
			"componentType":5126,
			"count":301,
			"type":"VEC4"
		}
	],
	"bufferViews":[
		{
			"buffer":0,
			"byteLength":48,
			"byteOffset":0,
			"target":34962
		},
		{
			"buffer":0,
			"byteLength":48,
			"byteOffset":48,
			"target":34962
		},
		{
			"buffer":0,
			"byteLength":32,
			"byteOffset":96,
			"target":34962
		},
		{
			"buffer":0,
			"byteLength":12,
			"byteOffset":128,
			"target":34963
		},
		{
			"buffer":0,
			"byteLength":3444,
			"byteOffset":140,
			"target":34962
		},
		{
			"buffer":0,
			"byteLength":3444,
			"byteOffset":3584,
			"target":34962
		},
		{
			"buffer":0,
			"byteLength":2296,
			"byteOffset":7028,
			"target":34962
		},
		{
			"buffer":0,
			"byteLength":2880,
			"byteOffset":9324,
			"target":34963
		},
		{
			"buffer":0,
			"byteLength":3444,
			"byteOffset":12204,
			"target":34962
		},
		{
			"buffer":0,
			"byteLength":3444,
			"byteOffset":15648,
			"target":34962
		},
		{
			"buffer":0,
			"byteLength":2296,
			"byteOffset":19092,
			"target":34962
		},
		{
			"buffer":0,
			"byteLength":3444,
			"byteOffset":21388,
			"target":34962
		},
		{
			"buffer":0,
			"byteLength":3444,
			"byteOffset":24832,
			"target":34962
		},
		{
			"buffer":0,
			"byteLength":2296,
			"byteOffset":28276,
			"target":34962
		},
		{
			"buffer":0,
			"byteLength":3444,
			"byteOffset":30572,
			"target":34962
		},
		{
			"buffer":0,
			"byteLength":3444,
			"byteOffset":34016,
			"target":34962
		},
		{
			"buffer":0,
			"byteLength":2296,
			"byteOffset":37460,
			"target":34962
		},
		{
			"buffer":0,
			"byteLength":128448,
			"byteOffset":39756,
			"target":34962
		},
		{
			"buffer":0,
			"byteLength":128448,
			"byteOffset":168204,
			"target":34962
		},
		{
			"buffer":0,
			"byteLength":85632,
			"byteOffset":296652,
			"target":34962
		},
		{
			"buffer":0,
			"byteLength":127296,
			"byteOffset":382284,
			"target":34963
		},
		{
			"buffer":0,
			"byteLength":9348,
			"byteOffset":509580,
			"target":34962
		},
		{
			"buffer":0,
			"byteLength":9348,
			"byteOffset":518928,
			"target":34962
		},
		{
			"buffer":0,
			"byteLength":6232,
			"byteOffset":528276,
			"target":34962
		},
		{
			"buffer":0,
			"byteLength":8640,
			"byteOffset":534508,
			"target":34963
		},
		{
			"buffer":0,
			"byteLength":1204,
			"byteOffset":543148
		},
		{
			"buffer":0,
			"byteLength":4816,
			"byteOffset":544352
		}
	],
	"samplers":[
		{
			"magFilter":9729,
			"minFilter":9987
		}
	],
	"buffers":[
		{
			"byteLength":549168,
			"uri":"donat%202.bin"
		}
	]
}
